<?xml version="1.0" encoding="iso-8859-1"?>
<!-- Generator: Adobe Illustrator 29.6.1, SVG Export Plug-In . SVG Version: 9.03 Build 0)  -->
<svg version="1.1" id="Ebene_2" xmlns="http://www.w3.org/2000/svg" xmlns:xlink="http://www.w3.org/1999/xlink" x="0px" y="0px"
	 width="517.604px" height="490.018px" viewBox="0 0 517.604 490.018" style="enable-background:new 0 0 517.604 490.018;"
	 xml:space="preserve">
<g>
	<circle style="fill:#B37338;" cx="258.1" cy="134.495" r="45.354"/>
	<path style="fill:#B37338;" d="M323.309,252.885h-0.076c-1.572-34.61-30.122-62.189-65.121-62.189
		c-34.999,0-63.548,27.579-65.121,62.189h-0.076v62.809c25.373,22.356,47.937,47.202,66.209,73.405
		c17.972-25.146,39.863-48.97,64.342-70.465L323.309,252.885z"/>
</g>
<g>
	<path style="fill:#F2E3A4;" d="M56.139,215.796c0-111.353,90.27-201.623,201.623-201.623s201.623,90.27,201.623,201.623
		c0,4.825-0.181,9.607-0.514,14.347l14.447-4.297c0.153-3.332,0.241-6.681,0.241-10.05C473.558,96.615,376.943,0,257.762,0
		S41.966,96.615,41.966,215.796c0,3.027,0.079,6.034,0.202,9.031l14.495,5.466C56.323,225.504,56.139,220.672,56.139,215.796z"/>
	<path style="fill:#FEF5CE;" d="M69.382,215.796c0-104.04,84.341-188.38,188.38-188.38s188.38,84.341,188.38,188.38
		c0,6.209-0.309,12.344-0.896,18.399l13.625-4.052c0.333-4.74,0.514-9.522,0.514-14.347c0-111.353-90.27-201.623-201.623-201.623
		S56.139,104.443,56.139,215.796c0,4.876,0.183,9.708,0.523,14.497l13.739,5.181C69.731,229.006,69.382,222.442,69.382,215.796z"/>
</g>
<path style="display:none;fill:#F2E3A4;" d="M564.756,215.333c-109.835,0-236.594,77.171-305.632,173.766
	C190.466,290.643,61.242,211.333-50.105,211.333c-160.439,0-257,146.067-257,295.41s130.061,270.41,290.5,270.41
	c104.998,0,211.544-43.892,272.644-116.085c60.211,74.569,168.294,120.085,275.218,120.085c160.439,0,290.5-121.067,290.5-270.41
	S725.195,215.333,564.756,215.333z"/>
<g>
	
		<ellipse transform="matrix(0.9732 -0.2298 0.2298 0.9732 -41.8445 39.1864)" style="fill:#D49259;" cx="147.355" cy="199.285" rx="34.183" ry="34.183"/>
	<path style="fill:#D49259;" d="M148.751,242.743c-14.034,0-26.698,6.073-35.09,15.762l11.813,7.739
		c23.896,14.419,46.708,31.162,67.608,49.595c0.284-2.74,0.833-10.382,0.833-28.593
		C193.915,262.668,173.695,242.743,148.751,242.743z"/>
</g>
<g>
	<circle style="fill:#8E5E2E;" cx="369.336" cy="236.602" r="29.055"/>
	<path style="fill:#8E5E2E;" d="M323.458,318.642c19.594-17.206,40.844-32.921,63.088-46.612l0.001-0.001
		c-3.538-0.789-9.075-1.442-12.851-1.442C346.667,270.587,324.644,291.905,323.458,318.642z"/>
</g>
<linearGradient id="SVGID_1_" gradientUnits="userSpaceOnUse" x1="258.0866" y1="462.7009" x2="258.0866" y2="242.8843">
	<stop  offset="0" style="stop-color:#C5DAE7"/>
	<stop  offset="0.1791" style="stop-color:#BFD5E5"/>
	<stop  offset="0.4383" style="stop-color:#ACC7DE"/>
	<stop  offset="0.7445" style="stop-color:#8DB2D2"/>
	<stop  offset="1" style="stop-color:#6A9DC6"/>
</linearGradient>
<path style="fill:url(#SVGID_1_);" d="M487.781,243.726c-55.454,17.988-105.681,48.679-148.782,86.993
	c-30.121,26.776-57.292,57.741-79.603,91.982c-22.311-34.241-49.482-65.206-79.603-91.982
	c-43.779-38.916-94.907-69.971-151.399-87.835v33.865c56.492,20.499,107.62,55.054,151.399,93.97
	c30.121,26.776,57.292,57.741,79.603,91.982c22.311-34.241,49.482-65.206,79.603-91.982c43.102-38.314,93.328-72.398,148.782-93.005
	V243.726z"/>
<linearGradient id="SVGID_00000135679783643152084740000003263523970653521301_" gradientUnits="userSpaceOnUse" x1="258.8022" y1="469.7009" x2="258.8022" y2="267.7997">
	<stop  offset="0" style="stop-color:#5385B0"/>
	<stop  offset="0.62" style="stop-color:#4C80AB"/>
	<stop  offset="1" style="stop-color:#447AA6"/>
</linearGradient>
<path style="fill:url(#SVGID_00000135679783643152084740000003263523970653521301_);" d="M517.604,268.117
	c-67.337,18.308-127.901,57.529-178.606,102.602c-30.121,26.776-57.292,57.741-79.603,91.982
	c-22.311-34.241-49.482-65.206-79.603-91.982C128.79,325.382,67.812,285.968,0,267.8v24.694
	c77.132,23.839,151.214,73.771,179.792,101.225c49.553,47.605,38.391,32.419,79.603,75.982
	c27.484-32.363,49.912-52.887,79.603-76.982c54.033-43.85,112.753-83.391,178.606-102.133V268.117z"/>
<linearGradient id="SVGID_00000000912420806143073630000000450839404868024253_" gradientUnits="userSpaceOnUse" x1="258.8022" y1="490.0177" x2="258.8022" y2="290.5862">
	<stop  offset="0" style="stop-color:#254F73"/>
	<stop  offset="0.2732" style="stop-color:#2A5378"/>
	<stop  offset="0.6091" style="stop-color:#376087"/>
	<stop  offset="0.9766" style="stop-color:#4F79A4"/>
	<stop  offset="1" style="stop-color:#507BA6"/>
</linearGradient>
<path style="fill:url(#SVGID_00000000912420806143073630000000450839404868024253_);" d="M338.998,392.719
	c-29.691,24.095-52.119,44.619-79.603,76.982c-41.212-43.563-30.051-28.377-79.603-75.982C151.214,366.264,77.132,316.334,0,292.495
	v75.16c0.298,0.079,0.596,0.156,0.894,0.239c68.494,19.138,109.072,33.353,194.267,80.97c23.972,13.398,45.314,27.017,63.998,41.153
	c18.684-14.136,40.026-27.755,63.998-41.153c85.195-47.617,125.773-61.832,194.267-80.97c0.06-0.017,0.121-0.032,0.181-0.049v-77.26
	C451.751,309.328,393.031,348.869,338.998,392.719z"/>
</svg>
